HIERARCHY
ROOT Hips
{
    OFFSET 0.000000 0.000000 0.000000
    CHANNELS 6 Xposition Yposition Zposition Zrotation Xrotation Yrotation
    JOINT Spine
    {
        OFFSET -0.000000 7.246840 0.000000
        CHANNELS 3 Zrotation Xrotation Yrotation
        JOINT Spine1
        {
            OFFSET -0.000000 20.289354 0.000000
            CHANNELS 3 Zrotation Xrotation Yrotation
            JOINT Neck
            {
                OFFSET -0.000000 20.206032 1.836912
                CHANNELS 3 Zrotation Xrotation Yrotation
                JOINT Head
                {
                    OFFSET -0.000000 12.372654 -1.767522
                    CHANNELS 3 Zrotation Xrotation Yrotation
                    End Site
                    {
                        OFFSET -0.000000 22.094025 0.000000
                    }
                }
            }
            JOINT LeftShoulder
            {
                OFFSET 3.465871 17.201674 -0.568930
                CHANNELS 3 Zrotation Xrotation Yrotation
                JOINT LeftArm
                {
                    OFFSET 14.070313 0.000000 0.000000
                    CHANNELS 3 Zrotation Xrotation Yrotation
                    JOINT LeftForeArm
                    {
                        OFFSET 26.549477 0.000000 0.000000
                        CHANNELS 3 Zrotation Xrotation Yrotation
                        JOINT LeftHand
                        {
                            OFFSET 18.880413 0.000000 0.000000
                            CHANNELS 3 Zrotation Xrotation Yrotation
                            End Site
                            {
                                OFFSET 13.256415 0.000000 0.000000
                            }
                        }
                    }
                }
            }
            JOINT RightShoulder
            {
                OFFSET -3.526370 17.201674 -0.568930
                CHANNELS 3 Zrotation Xrotation Yrotation
                JOINT RightArm
                {
                    OFFSET -14.070313 0.000000 0.000000
                    CHANNELS 3 Zrotation Xrotation Yrotation
                    JOINT RightForeArm
                    {
                        OFFSET -26.549477 0.000000 0.000000
                        CHANNELS 3 Zrotation Xrotation Yrotation
                        JOINT RightHand
                        {
                            OFFSET -18.880413 0.000000 0.000000
                            CHANNELS 3 Zrotation Xrotation Yrotation
                            End Site
                            {
                                OFFSET -13.256415 0.000000 0.000000
                            }
                        }
                    }
                }
            }
        }
    }
    JOINT LeftUpLeg
    {
        OFFSET 8.837609 0.000000 0.000000
        CHANNELS 3 Zrotation Xrotation Yrotation
        JOINT LeftLeg
        {
            OFFSET -0.000000 -41.345005 0.000000
            CHANNELS 3 Zrotation Xrotation Yrotation
            JOINT LeftFoot
            {
                OFFSET -0.000000 -35.500874 0.000000
                CHANNELS 3 Zrotation Xrotation Yrotation
                JOINT LeftToeBase
                {
                    OFFSET -0.000000 -5.744446 13.256415
                    CHANNELS 3 Zrotation Xrotation Yrotation
                    End Site
                    {
                        OFFSET -0.000000 0.000000 3.535044
                    }
                }
            }
        }
    }
    JOINT RightUpLeg
    {
        OFFSET -8.837609 0.000000 0.000000
        CHANNELS 3 Zrotation Xrotation Yrotation
        JOINT RightLeg
        {
            OFFSET -0.000000 -41.345005 0.000000
            CHANNELS 3 Zrotation Xrotation Yrotation
            JOINT RightFoot
            {
                OFFSET -0.000000 -35.500874 0.000000
                CHANNELS 3 Zrotation Xrotation Yrotation
                JOINT RightToeBase
                {
                    OFFSET -0.000000 -5.744446 13.256415
                    CHANNELS 3 Zrotation Xrotation Yrotation
                    End Site
                    {
                        OFFSET -0.000000 0.000000 3.535044
                    }
                }
            }
        }
    }
}
MOTION
Frames:    12
Frame Time:    0.010000
14.720774    75.829140    73.612770    9.506709    -4.402443    6.947408    -7.979495    -1.127705    -1.472481    0.628761    12.440660    -1.462178    0.375469    19.261271    -2.588968    5.582227    -18.336088    -1.020874    4.973295    4.045131    12.739344    -74.715134    44.601845    -1.221748    1.828103    -17.709978    -45.011105    -31.787109    -14.524663    -8.967548    -4.082748    7.177065    6.583212    72.701225    32.567810    1.506353    -14.887155    -20.078705    50.310043    19.774874    -12.786152    3.265570    -8.910544    -15.781100    -3.700058    -1.824447    41.253006    -1.749208    8.630358    -14.751473    2.768478    -1.956633    -4.148274    2.810509    -16.467419    -19.002150    -6.130560    -10.707975    47.289803    13.730042    12.236362    -20.079506    -10.702570    -0.629674    1.446243    1.111961    
14.731838    75.487885    73.950195    9.521276    -5.558702    7.152530    -7.064591    -0.192281    -1.004510    -1.090048    13.748846    -0.861044    1.434026    18.881832    -3.019754    5.272633    -19.489578    -1.485033    5.447049    3.542027    11.411959    -75.278328    42.630581    -3.191120    2.777055    -15.894241    -42.575722    -31.771046    -12.567863    -8.243517    -3.447722    7.246177    6.546267    73.978172    32.968319    2.034879    -14.169617    -19.309738    50.891144    19.399664    -12.311718    2.887504    -8.446059    -15.958589    -3.761826    -2.862804    44.359848    -1.370338    8.394718    -15.829872    2.915612    -1.729452    -4.665635    2.492622    -15.900449    -18.644590    -5.216632    -11.675304    49.549915    13.407499    12.753106    -20.899818    -10.500598    -0.665020    0.724948    1.183347    
14.749495    75.173943    74.342056    9.574473    -6.925585    7.127090    -6.318349    1.122671    -0.540830    -2.579839    14.360720    -0.277606    2.277116    19.654190    -3.314504    5.279953    -21.470142    -1.663371    5.939868    3.678784    10.534315    -75.671906    41.646168    -5.502796    2.421256    -14.848722    -40.893272    -28.235899    -11.928527    -8.332544    -3.021075    7.349269    6.777563    75.102654    34.156948    2.105952    -14.273822    -19.389318    51.818058    20.957977    -12.050371    3.520754    -7.878759    -15.357874    -2.982828    -3.440231    46.505455    -2.033489    8.645030    -16.774776    3.503138    -1.623429    -5.116264    2.346779    -15.418122    -17.855186    -4.841191    -12.796900    51.130329    13.622016    13.239575    -21.499456    -10.053558    -0.725158    0.124107    1.298667    
14.772856    74.846733    74.730316    9.567634    -8.047305    6.832650    -5.718788    2.333361    -0.149727    -3.783331    14.404503    0.212084    2.823591    20.846727    -3.469848    5.530193    -23.377209    -1.604615    6.397789    3.735409    10.000212    -76.462639    41.190193    -6.828175    1.932212    -14.561357    -40.345398    -24.995073    -12.067135    -8.348195    -2.841771    7.510743    6.969440    75.901634    36.156849    2.171581    -14.412071    -20.458464    53.223160    22.697727    -12.581921    4.752093    -7.188708    -14.494607    -1.355833    -3.529577    47.765030    -3.150677    9.312172    -17.492243    4.132650    -1.313303    -5.397852    1.902063    -14.984685    -17.217438    -5.031087    -14.491874    52.094040    13.941559    14.016244    -21.735603    -8.626217    -0.833048    -0.128662    1.495942    
14.816293    74.526665    75.113144    9.548418    -8.882936    6.302006    -5.341872    3.215803    0.140027    -4.729235    14.289711    0.582405    3.107183    21.898394    -3.430609    5.945963    -24.651146    -1.314066    6.740297    3.755289    9.948364    -77.406754    40.848869    -7.466527    2.071478    -14.419258    -40.745018    -23.644955    -11.981713    -8.273731    -2.857717    7.155911    7.197174    76.640343    39.087887    1.751978    -14.909579    -21.813993    54.943958    22.804356    -13.330642    5.449457    -6.698854    -13.511196    1.031709    -2.289589    48.354187    -5.205941    9.363660    -18.331856    4.040531    -1.385522    -5.434072    2.007131    -14.694508    -16.749971    -5.443677    -16.221186    52.558571    13.725562    15.078023    -21.679949    -6.303189    -0.932893    -0.253458    1.677486    
14.885846    74.226967    75.463799    9.578609    -9.251606    5.710014    -5.315653    3.779344    0.219602    -5.106122    13.757782    0.660419    2.895009    22.626345    -3.284300    6.196251    -24.731691    -1.060637    6.814536    3.881018    10.086173    -78.430878    40.924530    -7.394875    2.129348    -14.627480    -42.003056    -22.741858    -12.155637    -8.556210    -2.913603    7.061191    7.232995    76.318634    41.877579    2.009610    -14.843656    -23.094646    57.280048    21.145069    -14.401891    5.484818    -6.507936    -12.791274    3.392653    -0.489397    48.445774    -7.193687    9.191454    -18.913244    3.655572    -1.257764    -5.684155    1.825110    -14.738919    -16.626951    -5.896664    -17.482418    52.992210    14.903795    15.453735    -22.146891    -5.621141    -1.032657    -0.436861    1.860560    
14.946908    73.996773    75.780907    9.702387    -9.133525    4.997668    -5.863595    3.848835    0.231298    -4.721775    13.073932    0.575645    2.351704    23.382107    -2.936197    6.207498    -24.516083    -0.721706    6.263793    4.017100    10.383698    -78.906403    41.443878    -7.158057    1.531424    -15.140685    -44.041122    -20.351923    -12.952101    -9.101639    -3.245861    7.013115    7.485046    75.818687    43.980721    2.129611    -15.519193    -24.274796    59.744934    20.121359    -14.900515    5.499580    -6.500733    -12.477827    4.936911    0.507467    48.291119    -8.489560    9.058496    -19.244648    3.680737    -1.182895    -5.852509    1.718415    -15.026111    -16.920700    -6.109256    -18.176178    53.336288    16.066776    15.663492    -22.634443    -5.393804    -1.007468    -0.620529    1.818818    
15.027070    73.881577    76.105690    9.813710    -8.786708    4.370279    -6.423770    3.555642    0.119075    -4.290770    12.580115    0.392813    1.763064    23.716589    -2.504845    6.242429    -23.833296    -0.331459    5.802088    3.786151    10.861678    -79.219666    42.549110    -6.724257    1.519978    -15.156007    -45.864300    -18.740829    -12.855519    -10.445272    -3.611659    6.939513    7.750784    75.224953    45.327042    2.210069    -16.387741    -25.460876    62.403572    18.999460    -15.241880    5.364690    -6.562089    -12.395476    5.071301    0.055899    47.978329    -6.949444    8.542961    -19.526022    2.712857    -1.112417    -5.933340    1.616914    -15.453944    -17.253304    -6.096482    -17.963703    53.482876    16.110126    15.936686    -22.898355    -4.890055    -1.073703    -0.985985    1.946161    
15.074189    73.824562    76.364258    9.962781    -8.060526    3.556632    -7.008757    2.834833    0.010930    -4.246014    12.314724    0.295537    1.485195    23.389336    -2.021207    6.445498    -22.681448    0.154134    6.199165    3.491425    11.476560    -80.005577    43.774681    -6.250826    3.120577    -14.627841    -47.190334    -18.763304    -11.474755    -11.306209    -3.538312    6.581491    8.054037    74.537666    45.655392    2.007814    -17.431293    -26.290005    65.436577    18.016876    -15.007127    4.789154    -6.621516    -12.840516    4.849449    -0.930453    47.890923    -5.761003    8.391489    -19.725298    2.840763    -1.062713    -5.997867    1.545343    -15.864444    -18.068230    -5.791141    -17.583820    53.652061    16.103523    16.504375    -23.049753    -4.502667    -1.142453    -1.525347    2.083154    
15.097901    73.898415    76.663879    9.929317    -7.402945    2.853590    -7.438365    2.031118    -0.072302    -3.748014    11.992321    0.189746    0.818980    23.806654    -1.475416    6.608300    -22.371569    0.716615    6.204253    3.475897    11.456476    -80.341599    44.670872    -5.821631    5.677915    -14.013041    -48.432102    -20.440722    -9.509518    -11.308481    -3.942101    6.457059    8.153589    73.826508    45.134144    2.143467    -18.378237    -26.748304    68.389526    16.757273    -14.377511    4.062321    -6.507836    -13.185670    4.333948    -2.094327    47.688469    -4.314173    8.240620    -19.772343    2.949738    -1.038800    -6.069447    1.511301    -16.051979    -18.603767    -5.617316    -17.011026    53.455498    15.887867    16.706333    -23.041616    -4.269513    -1.161582    -1.795720    2.124431    
15.135607    74.079773    76.996597    9.844347    -6.819341    2.337923    -7.590228    0.953671    -0.198074    -3.647851    12.206606    0.128847    0.676146    24.129501    -1.125338    6.441040    -22.229401    1.009160    6.587212    3.607822    11.239575    -80.469437    45.362751    -5.820037    7.996512    -13.807933    -49.661045    -22.597822    -7.888231    -11.587658    -4.085238    6.386237    8.160861    72.586761    43.976608    2.717761    -19.275204    -26.976643    71.171120    15.326015    -13.430577    3.593617    -6.406209    -13.359389    3.614491    -3.224621    47.275570    -2.984406    8.152655    -19.575081    3.143805    -1.016854    -6.196092    1.480638    -16.216715    -18.887682    -5.721716    -16.384838    53.002483    15.659899    16.775892    -22.812370    -4.149487    -1.344313    -1.856718    2.460242    
15.160801    74.394272    77.364288    9.661366    -6.427733    1.939455    -7.644553    -0.045042    -0.351791    -3.529214    12.558397    0.039877    0.688374    24.434414    -0.857313    6.144190    -22.090820    1.185537    6.886292    3.408288    11.292002    -80.325661    46.411331    -5.687191    9.372121    -14.070668    -51.164436    -24.134974    -7.078496    -12.202681    -4.169317    6.056569    8.220359    71.520515    42.599915    2.829922    -20.198084    -27.177982    73.912918    13.147310    -12.366401    3.000710    -6.273794    -13.229761    3.165814    -3.785105    46.634239    -2.407439    8.072709    -19.199884    3.431844    -1.044090    -6.379218    1.522178    -16.251614    -18.771055    -5.917978    -15.627787    52.222622    15.233006    16.663231    -22.379280    -4.171634    -1.601576    -1.961439    2.934374    
